{"glyphs":{":":{"x_min":0,"x_max":332,"ha":332,"o":"m 110 397 q 117 436 146 463 q 175 490 210 490 q 244 490 264 463 q 284 435 277 397 q 271 359 241 332 q 212 305 177 305 q 143 305 123 332 q 104 359 110 397 z m 55 79 q 62 117 91 145 q 120 172 154 172 q 188 172 208 145 q 228 117 221 79 q 215 41 185 13 q 156 -14 122 -14 q 87 -14 68 13 q 48 41 55 79 z"},"$":{"x_min":0,"x_max":626,"ha":626,"o":"m 37 29 l 62 171 l 115 171 q 110 105 139 73 q 168 41 231 41 l 238 41 l 272 239 q 167 266 128 312 q 89 358 103 438 q 118 526 181 576 q 244 627 341 630 l 364 761 l 417 761 l 394 630 q 442 627 486 616 q 529 606 568 587 l 545 454 l 492 454 q 495 511 467 542 q 438 574 384 575 l 353 393 q 466 364 505 316 q 544 267 529 179 q 513 89 449 39 q 385 -11 281 -14 l 258 -146 l 205 -146 l 228 -14 q 180 -13 132 -2 q 84 8 37 29 z m 331 575 q 293 570 268 549 q 242 529 237 499 q 231 465 246 444 q 261 423 302 409 z m 291 41 q 336 46 363 68 q 389 89 396 125 q 402 161 385 185 q 368 208 323 223 z"},"?":{"x_min":0,"x_max":527,"ha":527,"o":"m 101 79 q 107 117 136 145 q 166 172 200 172 q 235 172 255 145 q 274 117 268 79 q 261 41 232 13 q 202 -14 167 -14 q 133 -14 114 13 q 94 41 101 79 z m 119 709 q 176 726 227 734 q 277 742 324 742 q 435 742 484 688 q 534 634 517 534 q 500 436 432 379 q 365 322 256 313 l 238 213 l 177 213 l 203 359 q 268 380 304 425 q 341 470 354 545 q 366 615 346 651 q 325 687 273 687 q 225 687 193 655 q 161 623 146 559 l 93 559 z"},"<":{"x_min":0,"x_max":754,"ha":754,"o":"m 659 478 l 229 313 l 659 149 l 659 32 l 95 259 l 95 369 l 659 595 z"},"'":{"x_min":0,"x_max":275,"ha":275,"o":"m 190 729 l 190 458 l 86 458 l 86 729 z"},"=":{"x_min":0,"x_max":754,"ha":754,"o":"m 95 258 l 659 258 l 659 147 l 95 147 z m 95 480 l 659 480 l 659 369 l 95 369 z"},"a":{"x_min":0,"x_max":583,"ha":583,"o":"m 370 428 q 368 457 343 457 q 284 457 227 379 q 200 343 179 222 q 163 132 174 97 q 186 62 228 62 q 269 62 294 103 q 320 143 335 234 z m 519 503 l 442 59 l 500 60 l 490 0 l 295 0 l 306 66 q 258 -14 172 -14 q 87 -14 50 48 q 12 110 31 219 q 50 328 134 422 q 234 533 368 533 q 500 533 519 503 z"},"L":{"x_min":0,"x_max":633,"ha":633,"o":"m -21 0 l -11 59 l 73 59 l 180 670 l 96 670 l 106 729 l 444 729 l 434 670 l 349 670 l 244 67 l 502 67 l 522 182 l 582 182 l 550 0 z"},"3":{"x_min":0,"x_max":626,"ha":626,"o":"m 138 708 q 199 725 255 734 q 311 742 362 742 q 481 742 536 695 q 591 648 576 560 q 564 494 521 453 q 478 412 404 398 q 488 383 521 333 q 555 283 540 197 q 521 95 439 40 q 357 -14 219 -14 q 167 -14 114 -4 q 61 5 3 25 l 32 185 l 84 185 q 78 116 105 79 q 133 43 194 43 q 261 43 304 84 q 348 125 361 201 q 375 280 344 323 q 314 366 244 366 l 215 366 l 226 425 l 249 425 q 313 425 351 458 q 390 491 401 557 q 412 619 387 652 q 362 685 305 685 q 253 685 218 654 q 182 622 165 562 l 112 562 z"},";":{"x_min":0,"x_max":332,"ha":332,"o":"m 124 397 q 130 436 160 463 q 189 490 223 490 q 257 490 277 463 q 297 435 290 397 q 284 359 255 332 q 226 305 191 305 q 156 305 137 332 q 117 359 124 397 z m -21 -92 q 32 -51 62 -1 q 93 50 104 117 l 112 160 l 237 160 q 218 50 164 -29 q 109 -108 16 -161 z"},"J":{"x_min":0,"x_max":426,"ha":426,"o":"m -142 -175 l -122 -60 l -64 -60 q -70 -106 -57 -127 q -43 -149 -10 -149 q 33 -149 56 -113 q 79 -76 97 24 l 209 670 l 114 670 l 125 729 l 474 729 l 464 670 l 380 670 l 266 20 q 245 -99 182 -153 q 119 -208 1 -208 q -35 -208 -71 -200 q -106 -191 -142 -175 z"},"V":{"x_min":0,"x_max":698,"ha":698,"o":"m 775 729 l 765 670 l 709 670 l 345 0 l 240 0 l 110 670 l 48 670 l 59 729 l 366 729 l 356 670 l 292 670 l 385 187 l 647 670 l 569 670 l 580 729 z"},"\"":{"x_min":0,"x_max":469,"ha":469,"o":"m 190 729 l 190 458 l 86 458 l 86 729 z m 383 729 l 383 458 l 279 458 l 279 729 z"},"7":{"x_min":0,"x_max":626,"ha":626,"o":"m 594 605 l 217 0 l 128 0 l 495 591 l 171 591 l 154 492 l 94 492 l 135 729 l 615 729 z"},"S":{"x_min":0,"x_max":650,"ha":650,"o":"m 12 35 l 42 208 l 98 208 q 96 126 137 85 q 177 45 261 45 q 329 45 370 74 q 411 103 420 158 q 428 202 408 227 q 388 251 316 272 l 222 299 q 131 326 100 375 q 70 423 85 513 q 104 622 180 682 q 255 742 372 742 q 430 742 490 731 q 550 721 613 699 l 585 538 l 529 538 q 530 613 493 648 q 456 683 376 683 q 311 683 273 658 q 236 633 227 583 q 219 538 238 514 q 257 490 341 465 l 435 438 q 522 413 554 359 q 585 305 569 211 q 550 101 471 43 q 393 -14 259 -14 q 195 -14 134 -2 q 73 10 12 35 z"},"}":{"x_min":0,"x_max":579,"ha":579,"o":"m 11 -104 l 56 -104 q 104 -104 127 -81 q 149 -58 161 8 l 184 140 q 197 217 224 250 q 251 282 312 299 q 258 313 242 347 q 226 380 239 457 l 262 589 q 274 655 260 678 q 246 701 197 701 l 152 701 l 163 760 l 227 760 q 331 760 365 748 q 398 736 415 706 q 425 688 426 661 q 426 635 417 580 l 396 458 q 382 384 401 356 q 419 328 481 328 l 508 328 l 498 269 l 471 269 q 409 269 381 241 q 353 213 339 139 l 318 17 q 309 -38 298 -64 q 288 -91 272 -109 q 245 -139 207 -151 q 169 -163 65 -163 l 1 -163 z"},"Z":{"x_min":0,"x_max":657,"ha":657,"o":"m -30 0 l -18 69 l 478 662 l 163 662 l 144 553 l 84 553 l 115 729 l 684 729 l 672 660 l 181 67 l 513 67 l 531 169 l 591 169 l 561 0 z"},"x":{"x_min":0,"x_max":536,"ha":536,"o":"m 329 331 l 482 519 l 545 519 l 345 275 l 446 59 l 508 59 l 498 0 l 299 0 l 208 196 l 46 0 l -16 0 l 190 253 l 92 460 l 40 460 l 50 519 l 241 519 z"},")":{"x_min":0,"x_max":426,"ha":426,"o":"m -34 -156 l -23 -97 q 54 -50 101 42 q 147 134 177 302 q 206 470 192 562 q 177 654 116 701 l 126 760 q 265 695 317 583 q 370 471 341 302 q 311 133 218 19 q 125 -95 -34 -156 z"},"&":{"x_min":0,"x_max":812,"ha":812,"o":"m 732 0 l 522 0 l 478 64 q 427 25 370 5 q 313 -14 250 -14 q 119 -14 55 48 q 6 96 6 172 q 6 195 11 220 q 25 300 73 356 q 121 413 209 453 q 192 486 186 516 q 183 532 183 548 q 183 561 185 573 q 199 653 267 698 q 335 742 445 742 q 478 742 520 736 q 562 730 615 719 l 588 567 l 531 567 q 532 574 532 581 q 532 631 513 655 q 493 683 446 683 q 401 683 372 660 q 342 636 335 596 q 334 591 334 585 q 334 540 390 462 q 397 453 401 448 l 562 213 q 594 246 617 290 q 639 333 653 388 l 663 447 l 803 447 l 792 388 l 715 388 q 695 317 666 262 q 636 207 596 164 l 668 59 l 743 59 z m 444 112 l 247 399 q 217 366 198 329 q 179 292 172 252 q 168 229 168 208 q 168 155 195 116 q 232 63 305 63 q 339 63 373 75 q 408 87 444 112 z"},"_":{"x_min":0,"x_max":450,"ha":450,"o":"m 450 -143 l 450 -236 l 0 -236 l 0 -143 z"},"v":{"x_min":0,"x_max":523,"ha":523,"o":"m 280 0 l 155 0 l 70 460 l 19 460 l 29 519 l 219 519 l 291 132 q 302 132 373 236 q 438 336 466 460 l 415 460 l 425 520 l 530 519 q 531 397 442 234 q 358 80 280 0 z"},"O":{"x_min":0,"x_max":784,"ha":784,"o":"m 336 45 q 419 45 474 124 q 529 202 557 364 q 585 526 558 604 q 531 683 447 683 q 364 683 309 604 q 254 524 226 364 q 198 204 225 124 q 252 45 336 45 z m 325 -14 q 160 -14 83 86 q 7 187 38 364 q 69 541 181 641 q 292 742 458 742 q 624 742 700 642 q 776 541 745 364 q 714 187 603 86 q 491 -14 325 -14 z"},"(":{"x_min":0,"x_max":426,"ha":426,"o":"m 299 -156 q 161 -95 108 19 q 55 133 85 302 q 114 471 206 583 q 298 695 459 760 l 449 701 q 371 654 324 562 q 278 470 248 302 q 219 134 233 42 q 248 -50 309 -97 z"},"C":{"x_min":0,"x_max":716,"ha":716,"o":"m 644 208 q 598 95 521 41 q 444 -14 331 -14 q 165 -14 86 88 q 7 189 38 364 q 68 539 183 640 q 297 742 463 742 q 521 742 582 727 q 643 711 708 679 l 676 500 l 621 500 q 620 592 582 637 q 545 683 471 683 q 375 683 315 605 q 254 526 226 364 q 197 201 230 123 q 263 45 360 45 q 425 45 474 85 q 522 126 556 208 z"},"W":{"x_min":0,"x_max":1011,"ha":1011,"o":"m 703 0 l 590 0 l 534 531 l 292 0 l 179 0 l 109 670 l 45 670 l 56 729 l 367 729 l 356 670 l 286 670 l 333 222 l 563 729 l 688 729 l 742 214 l 950 670 l 872 670 l 882 729 l 1085 729 l 1075 670 l 1007 670 z"},"A":{"x_min":0,"x_max":698,"ha":698,"o":"m -70 0 l -60 59 l -6 59 l 358 729 l 463 729 l 593 59 l 655 59 l 645 0 l 338 0 l 348 59 l 413 59 l 384 208 l 138 208 l 57 59 l 135 59 l 125 0 z m 170 267 l 373 267 l 321 546 z"},"f":{"x_min":0,"x_max":387,"ha":387,"o":"m -42 -135 q -7 -135 13 -107 q 34 -79 45 -16 l 128 460 l 59 460 l 69 519 l 139 519 l 150 584 q 165 670 222 715 q 280 760 376 760 q 414 760 448 755 q 483 750 516 741 l 497 630 l 447 630 q 448 637 448 644 q 448 671 437 687 q 424 705 394 705 q 358 705 338 677 q 317 649 306 586 l 294 519 l 412 519 l 401 460 l 284 460 l 201 -14 q 183 -116 128 -146 q 43 -190 -53 -190 q -48 -163 -42 -135 z"},"Q":{"x_min":0,"x_max":784,"ha":784,"o":"m 339 -14 q 173 -11 98 88 q 45 159 45 268 q 45 312 54 364 q 84 541 197 641 q 309 742 474 742 q 639 742 716 642 q 770 570 770 459 q 770 415 761 364 q 734 208 645 112 q 556 15 418 -8 q 437 -36 468 -48 q 540 -76 600 -76 l 684 -76 l 663 -196 l 588 -196 q 477 -196 409 -140 q 360 -100 339 -14 z m 352 45 q 436 45 490 124 q 545 202 573 364 q 587 447 587 508 q 587 566 574 604 q 547 683 463 683 q 380 683 325 604 q 270 524 242 364 q 228 283 228 222 q 228 164 241 124 q 268 45 352 45 z"},"w":{"x_min":0,"x_max":774,"ha":774,"o":"m 579 146 q 583 150 645 235 q 707 325 732 460 l 671 459 l 681 519 l 801 519 q 776 333 721 237 q 635 88 551 0 l 444 0 l 402 325 l 246 0 l 139 0 l 78 460 l 27 460 l 38 519 l 229 519 l 274 179 l 438 519 l 531 519 z"},"-":{"x_min":0,"x_max":374,"ha":374,"o":"m 61 334 l 336 334 l 313 202 l 37 202 z"},"E":{"x_min":0,"x_max":686,"ha":686,"o":"m -21 0 l -11 59 l 73 59 l 180 670 l 96 670 l 106 729 l 696 729 l 666 557 l 605 557 l 624 662 l 348 662 l 307 428 l 479 428 l 495 521 l 555 521 l 511 269 l 451 269 l 467 362 l 295 362 l 244 67 l 528 67 l 546 172 l 606 172 l 577 0 z"},"s":{"x_min":0,"x_max":506,"ha":506,"o":"m 25 160 l 75 160 q 74 153 74 146 q 74 98 100 70 q 126 41 178 41 q 281 41 293 112 q 295 121 295 135 q 295 148 284 163 q 272 177 229 190 l 167 208 q 99 228 77 260 q 55 292 55 331 q 55 347 58 366 q 73 451 133 492 q 192 533 288 533 q 384 533 489 502 l 465 371 l 416 371 q 417 380 417 389 q 417 478 318 478 q 218 478 207 412 q 205 404 205 393 q 205 361 259 345 l 320 327 q 407 301 431 269 q 456 236 456 194 q 456 177 452 157 q 437 69 373 28 q 310 -14 190 -14 q 104 -14 0 15 z"},">":{"x_min":0,"x_max":754,"ha":754,"o":"m 95 478 l 95 595 l 659 369 l 659 259 l 95 32 l 95 149 l 525 313 z"},"l":{"x_min":0,"x_max":342,"ha":342,"o":"m 197 59 l 263 59 l 253 0 l 31 0 l 153 701 l 87 701 l 97 760 l 319 760 z"},"8":{"x_min":0,"x_max":626,"ha":626,"o":"m 422 388 q 499 374 530 324 q 562 274 548 194 q 530 93 453 40 q 375 -14 246 -14 q 118 -14 58 40 q -1 93 17 194 q 31 274 80 324 q 130 374 210 388 q 145 406 117 447 q 90 488 102 552 q 118 645 188 693 q 259 742 378 742 q 497 742 551 693 q 605 645 589 552 q 578 488 536 447 q 495 406 422 388 z m 419 550 q 432 627 421 656 q 409 685 369 685 q 328 685 306 656 q 285 627 271 550 q 258 473 269 445 q 281 416 322 416 q 362 416 384 445 q 405 473 419 550 z m 375 202 q 391 292 376 325 q 362 359 312 359 q 261 359 235 325 q 209 292 193 202 q 177 112 192 77 q 206 43 256 43 q 306 43 333 77 q 359 112 375 202 z"},"\\":{"x_min":0,"x_max":329,"ha":329,"o":"m 169 729 l 257 -93 l 159 -93 l 72 729 z"},"e":{"x_min":0,"x_max":572,"ha":572,"o":"m 378 406 q 378 478 323 478 q 282 478 257 434 q 232 391 210 253 q 210 253 220 253 q 354 253 375 372 q 378 391 378 406 z m 200 195 q 197 179 197 144 q 197 41 288 41 q 338 41 375 71 q 411 101 429 157 l 502 157 q 468 69 404 27 q 341 -14 240 -14 q 119 -14 66 57 q 30 106 30 185 q 30 219 37 258 q 60 389 139 461 q 218 533 333 533 q 417 533 476 497 q 534 460 534 395 q 534 381 531 367 q 503 209 200 195 z"},"b":{"x_min":0,"x_max":629,"ha":629,"o":"m 145 701 l 78 701 l 88 760 l 311 760 l 257 453 q 284 494 321 513 q 357 533 407 533 q 507 533 551 460 q 581 412 581 339 q 581 302 573 260 q 551 132 481 59 q 411 -14 311 -14 q 262 -14 232 6 q 202 25 189 66 l 178 0 l 22 0 z m 219 234 q 210 185 210 151 q 210 122 217 103 q 230 62 277 62 q 325 62 352 105 q 379 148 398 260 q 411 329 411 372 q 411 398 406 414 q 394 457 346 457 q 299 457 271 417 q 244 376 228 285 z"},"%":{"x_min":0,"x_max":855,"ha":855,"o":"m 252 693 q 224 693 205 659 q 187 625 173 544 q 159 462 165 428 q 171 394 200 394 q 228 394 246 428 q 265 462 279 544 q 293 625 287 659 q 280 693 252 693 z m 260 742 q 344 742 380 691 q 416 640 399 544 q 382 448 328 396 q 275 345 191 345 q 107 345 72 396 q 36 448 53 544 q 70 640 123 691 q 177 742 260 742 z m 661 742 l 737 742 l 194 -14 l 119 -14 z m 664 383 q 748 383 783 332 q 819 281 802 185 q 785 89 732 37 q 678 -14 594 -14 q 511 -14 475 37 q 439 89 457 185 q 473 281 527 332 q 580 383 664 383 z m 576 185 q 562 104 568 69 q 575 35 603 35 q 631 35 650 69 q 668 104 682 185 q 697 266 690 300 q 684 334 655 334 q 626 334 608 300 q 590 266 576 185 z"},"m":{"x_min":0,"x_max":952,"ha":952,"o":"m 576 434 q 617 486 659 510 q 701 533 751 533 q 832 533 863 482 q 882 451 882 398 q 882 367 876 330 l 829 59 l 896 59 l 885 0 l 663 0 l 716 304 q 727 368 727 401 q 727 418 724 427 q 715 452 678 452 q 637 452 608 417 q 579 381 567 316 l 512 0 l 357 0 l 410 304 q 421 367 421 400 q 421 418 418 427 q 409 452 373 452 q 331 452 302 417 q 273 381 261 316 l 206 0 l 50 0 l 131 460 l 64 460 l 75 519 l 297 519 l 284 446 q 319 491 358 512 q 397 533 445 533 q 502 533 534 509 q 565 485 576 434 z"},"#":{"x_min":0,"x_max":754,"ha":754,"o":"m 450 426 l 334 426 l 303 292 l 419 292 z m 400 718 l 358 530 l 474 530 l 517 718 l 614 718 l 571 530 l 693 530 l 693 426 l 548 426 l 518 292 l 643 292 l 643 187 l 495 187 l 453 0 l 355 0 l 397 187 l 282 187 l 239 0 l 142 0 l 184 187 l 61 187 l 61 292 l 205 292 l 236 426 l 112 426 l 112 530 l 260 530 l 302 718 z"},",":{"x_min":0,"x_max":313,"ha":313,"o":"m -4 -96 q 49 -55 80 -4 q 110 46 122 114 l 129 156 l 254 156 l 254 152 q 235 44 181 -34 q 126 -112 33 -165 z"},"n":{"x_min":0,"x_max":654,"ha":654,"o":"m 50 0 l 131 460 l 64 460 l 75 519 l 297 519 l 284 446 q 320 492 360 513 q 399 533 455 533 q 533 533 564 481 q 584 449 584 396 q 584 366 578 330 l 531 59 l 597 59 l 587 0 l 365 0 l 423 335 q 429 369 429 393 q 429 414 424 427 q 414 452 376 452 q 329 452 301 414 q 272 375 257 292 l 206 0 z"},"h":{"x_min":0,"x_max":654,"ha":654,"o":"m 31 0 l 153 701 l 84 701 l 94 760 l 319 760 l 264 446 q 300 492 340 513 q 380 533 435 533 q 513 533 544 481 q 564 449 564 396 q 564 366 558 330 l 511 59 l 578 59 l 567 0 l 345 0 l 403 335 q 410 369 410 393 q 410 414 404 427 q 394 452 356 452 q 309 452 281 414 q 252 375 237 292 l 186 0 z"},"z":{"x_min":0,"x_max":511,"ha":511,"o":"m 517 461 l 208 95 q 224 89 236 81 q 292 48 327 48 q 379 48 458 119 l 445 42 q 367 -41 296 -41 q 260 -39 204 -7 q 141 28 116 28 q 92 28 66 17 q 41 6 30 -1 l -13 0 l -3 59 l 304 424 q 290 430 277 438 q 222 471 187 471 q 134 471 55 400 l 68 478 q 146 560 217 560 q 253 558 309 526 q 372 491 397 491 q 421 491 447 502 q 473 513 483 520 l 527 519 z"},"B":{"x_min":0,"x_max":760,"ha":760,"o":"m -21 0 l -11 59 l 73 59 l 180 670 l 96 670 l 106 729 l 495 729 q 615 729 668 684 q 720 639 704 549 q 693 484 645 446 q 597 408 513 398 q 610 388 655 339 q 699 291 685 211 q 666 103 583 51 q 500 0 344 0 z m 306 425 l 364 425 q 439 425 481 455 q 523 486 534 549 q 545 612 515 641 q 484 670 407 670 l 349 670 z m 242 59 l 305 59 q 389 59 436 96 q 483 133 497 211 q 510 289 476 328 q 442 366 359 366 l 296 366 z"},"K":{"x_min":0,"x_max":782,"ha":782,"o":"m -21 0 l -11 59 l 73 59 l 180 670 l 96 670 l 106 729 l 444 729 l 434 670 l 349 670 l 303 404 l 627 670 l 557 670 l 567 729 l 812 729 l 802 670 l 714 670 l 439 445 l 692 59 l 757 59 l 747 0 l 524 0 l 294 354 l 242 59 l 327 59 l 316 0 z"},"R":{"x_min":0,"x_max":748,"ha":748,"o":"m 477 356 q 515 350 538 327 q 561 305 573 262 l 633 59 l 700 59 l 690 0 l 474 0 l 408 220 q 390 289 372 307 q 354 326 316 326 l 289 326 l 242 59 l 327 59 l 316 0 l -21 0 l -11 59 l 73 59 l 180 670 l 96 670 l 106 729 l 481 729 q 595 729 648 678 q 702 627 685 533 q 672 457 620 413 q 568 369 477 356 z m 299 385 l 357 385 q 418 385 458 422 q 498 459 510 528 q 522 597 495 633 q 468 670 407 670 l 349 670 z"},"T":{"x_min":0,"x_max":669,"ha":669,"o":"m 99 0 l 109 59 l 197 59 l 302 662 l 123 662 l 102 547 l 42 547 l 74 729 l 724 729 l 692 547 l 633 547 l 653 662 l 472 662 l 367 59 l 454 59 l 444 0 z"},"P":{"x_min":0,"x_max":677,"ha":677,"o":"m -21 0 l -11 59 l 73 59 l 180 670 l 96 670 l 106 729 l 480 729 q 589 729 644 671 q 698 613 681 516 q 664 418 589 360 q 514 302 405 302 l 285 302 l 242 59 l 348 59 l 338 0 z m 295 361 l 344 361 q 401 361 443 403 q 484 445 497 516 q 509 586 483 628 q 456 670 398 670 l 349 670 z"},"|":{"x_min":0,"x_max":327,"ha":327,"o":"m 210 764 l 210 -236 l 116 -236 l 116 764 z"},"t":{"x_min":0,"x_max":416,"ha":416,"o":"m 111 460 l 44 460 l 54 519 l 122 519 l 150 680 l 306 680 l 277 519 l 407 519 l 396 460 l 267 460 l 211 142 q 204 99 204 77 q 204 63 206 58 q 213 41 238 41 q 267 41 284 62 q 301 83 310 127 l 375 127 q 357 49 318 17 q 278 -14 193 -14 q 97 -14 68 20 q 50 41 50 86 q 50 110 56 142 z"},"M":{"x_min":0,"x_max":996,"ha":996,"o":"m -25 0 l -15 59 l 68 59 l 175 670 l 92 670 l 102 729 l 373 729 l 478 261 l 748 729 l 1018 729 l 1008 670 l 924 670 l 817 59 l 901 59 l 891 0 l 553 0 l 563 59 l 647 59 l 745 615 l 452 107 l 341 107 l 227 615 l 130 59 l 213 59 l 203 0 z"},"g":{"x_min":0,"x_max":629,"ha":629,"o":"m 434 428 q 432 457 403 457 q 323 457 273 379 q 242 330 223 222 q 208 132 221 97 q 234 62 282 62 q 328 62 356 103 q 384 143 400 234 z m 600 486 l 516 7 q 495 -113 416 -162 q 320 -222 208 -222 q 161 -222 115 -214 q 68 -206 21 -190 l 42 -66 l 92 -66 q 92 -70 92 -74 q 92 -119 116 -142 q 142 -167 198 -167 q 271 -167 307 -129 q 343 -90 360 7 l 371 66 q 317 -14 218 -14 q 120 -14 75 48 q 30 110 48 219 q 72 352 183 447 q 282 533 429 533 q 547 533 600 486 z"},"j":{"x_min":0,"x_max":325,"ha":325,"o":"m 148 666 q 155 706 184 733 q 213 760 250 760 q 284 760 304 732 q 318 712 318 685 q 318 676 316 666 q 310 627 281 600 q 251 573 217 573 q 181 573 161 600 q 146 620 146 647 q 146 656 148 666 z m 130 460 l 64 460 l 74 519 l 296 519 l 195 -61 q 181 -141 123 -181 q 65 -222 -34 -222 q -61 -222 -90 -217 q -119 -212 -149 -203 l -129 -93 l -80 -93 q -82 -108 -82 -120 q -82 -139 -76 -149 q -66 -167 -37 -167 q -5 -167 12 -144 q 28 -121 39 -61 z"},"i":{"x_min":0,"x_max":342,"ha":342,"o":"m 133 666 q 140 706 169 733 q 198 760 234 760 q 269 760 288 732 q 303 712 303 686 q 303 676 301 666 q 294 627 265 600 q 236 573 201 573 q 166 573 146 600 q 131 620 131 647 q 131 656 133 666 z m 197 59 l 263 59 l 253 0 l 31 0 l 111 460 l 45 460 l 55 519 l 277 519 z"},"y":{"x_min":0,"x_max":523,"ha":523,"o":"m 219 -133 l 94 460 l 43 460 l 53 519 l 244 519 l 349 17 q 399 98 433 190 q 467 281 500 459 l 438 459 l 448 519 l 574 519 q 563 457 547 376 q 508 178 459 86 q 331 -153 228 -197 q 169 -222 85 -222 q 43 -222 -17 -201 l 2 -93 l 52 -93 q 50 -105 50 -115 q 50 -148 71 -159 q 80 -164 99 -167 q 109 -168 120 -168 q 169 -168 219 -133 z"},"@":{"x_min":0,"x_max":900,"ha":900,"o":"m 556 246 l 562 283 q 573 346 553 385 q 532 423 488 423 q 444 423 410 380 q 376 337 364 265 q 351 193 370 150 q 389 107 433 107 q 477 107 511 145 q 544 183 556 246 z m 533 117 q 508 82 473 63 q 438 45 399 45 q 315 45 277 104 q 240 162 258 265 q 275 368 333 427 q 392 485 476 485 q 515 485 543 466 q 572 448 585 413 l 596 474 l 692 474 l 628 112 q 695 131 739 188 q 783 245 798 331 q 811 401 796 458 q 782 515 741 562 q 707 600 656 621 q 605 641 543 641 q 486 641 434 624 q 381 607 334 573 q 263 521 215 441 q 167 361 150 265 q 137 189 147 122 q 156 55 187 6 q 224 -52 280 -82 q 336 -112 407 -112 q 461 -112 514 -95 q 567 -79 618 -46 l 635 -92 q 572 -133 507 -153 q 443 -174 379 -174 q 294 -174 229 -143 q 163 -112 118 -51 q 73 10 58 91 q 43 171 59 265 q 76 359 119 439 q 162 520 228 581 q 295 643 372 673 q 449 703 540 703 q 618 703 678 679 q 738 656 780 608 q 829 554 846 484 q 863 415 848 330 q 824 195 742 120 q 659 45 534 45 l 521 45 z"},".":{"x_min":0,"x_max":313,"ha":313,"o":"m 73 79 q 80 117 109 145 q 139 172 173 172 q 208 172 227 145 q 247 117 240 79 q 234 41 204 13 q 175 -14 140 -14 q 106 -14 86 13 q 66 41 73 79 z"},"p":{"x_min":0,"x_max":629,"ha":629,"o":"m 265 285 l 255 234 q 247 185 247 151 q 247 122 253 103 q 267 62 314 62 q 362 62 389 105 q 416 148 436 260 q 447 329 447 372 q 447 398 443 414 q 431 457 383 457 q 336 457 308 417 q 280 376 265 285 z m 140 460 l 73 460 l 83 519 l 305 519 l 294 453 q 321 494 358 513 q 395 533 444 533 q 543 533 588 460 q 618 412 618 339 q 618 302 610 260 q 588 132 518 59 q 448 -14 348 -14 q 299 -14 269 6 q 239 25 226 66 l 178 -208 l 22 -208 z"},"X":{"x_min":0,"x_max":698,"ha":698,"o":"m 291 281 l 115 59 l 196 59 l 186 0 l -47 0 l -37 59 l 44 59 l 266 338 l 119 670 l 58 670 l 69 729 l 395 729 l 384 670 l 312 670 l 403 465 l 565 670 l 489 670 l 499 729 l 728 729 l 717 670 l 636 670 l 428 408 l 583 59 l 645 59 l 634 0 l 307 0 l 317 59 l 390 59 z"},"*":{"x_min":0,"x_max":470,"ha":470,"o":"m 451 592 l 292 510 l 451 427 l 408 351 l 264 468 l 275 278 l 195 278 l 207 468 l 63 351 l 20 427 l 178 510 l 20 592 l 63 669 l 207 551 l 195 742 l 275 742 l 264 551 l 408 669 z"},"Y":{"x_min":0,"x_max":642,"ha":642,"o":"m 91 0 l 101 59 l 189 59 l 232 302 l 102 670 l 45 670 l 56 729 l 371 729 l 360 670 l 287 670 l 386 392 l 582 670 l 516 670 l 526 729 l 714 729 l 704 670 l 648 670 l 407 327 l 360 59 l 448 59 l 438 0 z"},"c":{"x_min":0,"x_max":548,"ha":548,"o":"m 491 162 q 458 73 399 30 q 340 -14 251 -14 q 126 -14 70 58 q 30 108 30 189 q 30 222 37 260 q 60 389 140 461 q 220 533 340 533 q 389 533 437 523 q 485 513 533 492 l 508 348 l 458 348 q 459 359 459 370 q 459 419 441 446 q 419 478 369 478 q 304 478 268 429 q 231 380 210 260 q 200 197 200 153 q 200 115 208 92 q 226 41 287 41 q 333 41 367 72 q 401 104 417 162 z"},"!":{"x_min":0,"x_max":395,"ha":395,"o":"m 65 79 q 72 117 101 145 q 130 172 165 172 q 199 172 219 145 q 239 117 232 79 q 226 41 196 13 q 167 -14 132 -14 q 98 -14 78 13 q 59 41 65 79 z m 180 729 l 345 729 l 221 318 l 205 225 l 144 225 l 160 318 z"},"/":{"x_min":0,"x_max":329,"ha":329,"o":"m 304 729 l 401 729 l 26 -93 l -71 -93 z"},"[":{"x_min":0,"x_max":426,"ha":426,"o":"m 190 760 l 439 760 l 429 701 l 336 701 l 200 -73 l 294 -73 l 284 -132 l 35 -132 z"},"r":{"x_min":0,"x_max":474,"ha":474,"o":"m 529 525 l 501 370 l 452 370 q 453 380 453 389 q 453 417 442 432 q 428 452 395 452 q 344 452 306 402 q 268 353 252 264 l 206 0 l 50 0 l 131 460 l 60 460 l 70 519 l 297 519 l 281 427 q 313 481 355 507 q 397 533 452 533 q 465 533 485 531 q 504 529 529 525 z"},"2":{"x_min":0,"x_max":626,"ha":626,"o":"m 150 549 l 98 549 l 125 706 q 182 724 236 733 q 290 742 344 742 q 469 742 529 685 q 589 628 571 527 q 559 455 510 397 q 461 340 338 261 l 132 128 l 443 128 l 458 214 l 519 214 l 481 0 l -4 0 l 17 119 l 127 194 q 268 289 321 356 q 374 423 390 512 q 404 597 381 641 q 357 685 297 685 q 245 685 208 650 q 170 615 150 549 z"},"{":{"x_min":0,"x_max":579,"ha":579,"o":"m 428 -104 l 417 -163 l 352 -163 q 249 -163 215 -151 q 181 -139 164 -109 q 154 -91 154 -64 q 153 -38 162 17 l 184 139 q 196 213 178 241 q 159 269 97 269 l 70 269 l 81 328 l 107 328 q 169 328 198 356 q 227 384 239 458 l 261 580 q 270 635 280 661 q 291 688 307 706 q 333 736 372 748 q 410 760 514 760 l 579 760 l 568 701 l 523 701 q 474 701 452 678 q 430 655 418 589 l 395 457 q 381 379 354 346 q 327 313 267 299 q 322 282 338 250 q 354 218 340 140 l 316 8 q 305 -58 319 -81 q 333 -104 382 -104 z"}," ":{"x_min":0,"x_max":313,"ha":313,"o":""},"I":{"x_min":0,"x_max":421,"ha":421,"o":"m -21 0 l -11 59 l 73 59 l 180 670 l 96 670 l 106 729 l 444 729 l 434 670 l 349 670 l 242 59 l 327 59 l 316 0 z"},"H":{"x_min":0,"x_max":850,"ha":850,"o":"m -21 0 l -11 59 l 73 59 l 180 670 l 96 670 l 106 729 l 444 729 l 434 670 l 349 670 l 306 425 l 567 425 l 610 670 l 526 670 l 537 729 l 874 729 l 864 670 l 779 670 l 672 59 l 757 59 l 747 0 l 409 0 l 419 59 l 503 59 l 556 358 l 294 358 l 242 59 l 327 59 l 316 0 z"},"4":{"x_min":0,"x_max":626,"ha":626,"o":"m 509 0 l 148 0 l 159 59 l 256 59 l 279 192 l 5 192 l 16 248 l 376 742 l 542 742 l 457 255 l 569 255 l 558 192 l 445 192 l 422 59 l 520 59 z m 291 255 l 352 609 l 95 255 z"},"~":{"x_min":0,"x_max":754,"ha":754,"o":"m 659 406 l 659 305 q 618 263 577 243 q 536 223 491 223 q 450 223 383 251 q 375 254 372 256 q 369 257 363 260 q 288 292 245 292 q 211 292 174 274 q 138 257 95 221 l 95 322 q 138 364 178 384 q 219 404 263 404 q 305 404 371 376 q 379 373 382 371 l 389 368 q 465 335 509 335 q 543 335 580 353 q 617 370 659 406 z"},"D":{"x_min":0,"x_max":780,"ha":780,"o":"m 242 59 l 303 59 q 406 59 467 132 q 527 206 555 365 q 583 524 548 597 q 514 670 410 670 l 349 670 z m -21 0 l -11 59 l 73 59 l 180 670 l 96 670 l 106 729 l 443 729 q 620 729 697 635 q 774 542 743 365 q 712 188 602 94 q 492 0 315 0 z"},"^":{"x_min":0,"x_max":754,"ha":754,"o":"m 428 729 l 663 457 l 569 457 l 377 611 l 185 457 l 91 457 l 330 729 z"},"0":{"x_min":0,"x_max":626,"ha":626,"o":"m 405 364 q 442 577 432 631 q 422 685 370 685 q 317 685 288 632 q 259 579 222 364 q 184 149 194 96 q 205 43 257 43 q 310 43 339 96 q 368 149 405 364 z m 247 -14 q 116 -14 63 83 q 10 181 42 364 q 74 547 161 645 q 248 742 379 742 q 510 742 563 645 q 616 547 584 364 q 552 181 465 83 q 378 -14 247 -14 z"},"F":{"x_min":0,"x_max":639,"ha":639,"o":"m -21 0 l -11 59 l 73 59 l 180 670 l 96 670 l 106 729 l 691 729 l 661 557 l 601 557 l 620 662 l 349 662 l 308 428 l 475 428 l 491 521 l 551 521 l 507 269 l 447 269 l 463 362 l 296 362 l 243 59 l 347 59 l 336 0 z"},"`":{"x_min":0,"x_max":450,"ha":450,"o":"m 238 800 l 319 616 l 247 616 l 116 800 z"},"k":{"x_min":0,"x_max":624,"ha":624,"o":"m 186 0 l 31 0 l 153 701 l 87 701 l 97 760 l 319 760 l 234 272 l 455 460 l 399 460 l 410 519 l 536 519 l 526 460 l 385 340 l 532 59 l 583 59 l 572 0 l 401 0 l 272 244 l 221 201 z"},"u":{"x_min":0,"x_max":654,"ha":654,"o":"m 604 519 l 523 59 l 590 59 l 580 0 l 357 0 l 370 73 q 334 27 294 6 q 255 -14 200 -14 q 121 -14 90 37 q 70 70 70 123 q 70 153 76 189 l 124 460 l 57 460 l 67 519 l 290 519 l 237 216 q 226 155 226 122 q 226 103 229 93 q 240 67 278 67 q 325 67 354 105 q 382 144 397 228 l 448 519 z"},"]":{"x_min":0,"x_max":426,"ha":426,"o":"m 392 760 l 236 -132 l -14 -132 l -3 -73 l 90 -73 l 226 701 l 132 701 l 142 760 z"},"U":{"x_min":0,"x_max":785,"ha":785,"o":"m 169 670 l 85 670 l 96 729 l 433 729 l 423 670 l 339 670 l 275 305 q 251 169 280 115 q 309 60 401 60 q 492 60 540 115 q 587 170 611 305 l 675 670 l 591 670 l 602 729 l 830 729 l 820 670 l 736 670 l 670 295 q 641 128 563 57 q 486 -14 333 -14 q 180 -14 127 58 q 74 129 104 296 z"},"o":{"x_min":0,"x_max":600,"ha":600,"o":"m 262 41 q 312 41 340 88 q 368 135 390 260 q 404 341 404 390 q 404 415 400 432 q 389 478 339 478 q 289 478 261 431 q 232 384 210 260 q 197 180 197 132 q 197 105 201 88 q 213 41 262 41 z m 72 59 q 31 111 31 192 q 31 224 37 260 q 60 388 142 461 q 225 533 349 533 q 472 533 530 461 q 571 409 571 328 q 571 296 564 260 q 542 132 459 59 q 376 -14 253 -14 q 129 -14 72 59 z"},"N":{"x_min":0,"x_max":822,"ha":822,"o":"m -24 0 l -13 59 l 70 59 l 177 670 l 93 670 l 104 729 l 309 729 l 615 213 l 695 670 l 611 670 l 622 729 l 851 729 l 840 670 l 757 670 l 640 0 l 524 0 l 214 527 l 132 59 l 216 59 l 206 0 z"},"+":{"x_min":0,"x_max":754,"ha":754,"o":"m 428 627 l 428 370 l 659 370 l 659 258 l 428 258 l 428 1 l 327 1 l 327 258 l 95 258 l 95 370 l 327 370 l 327 627 z"},"G":{"x_min":0,"x_max":769,"ha":769,"o":"m 643 500 q 640 597 602 640 q 563 683 479 683 q 377 683 316 606 q 255 529 226 364 q 197 200 229 122 q 261 45 358 45 q 395 45 428 54 q 461 63 491 82 l 526 282 l 447 282 l 457 341 l 693 341 l 645 61 q 564 23 487 4 q 410 -14 333 -14 q 165 -14 86 87 q 7 188 38 364 q 68 540 183 641 q 297 742 466 742 q 536 742 601 727 q 667 711 730 679 l 699 500 z"},"q":{"x_min":0,"x_max":629,"ha":629,"o":"m 599 486 l 488 -146 l 559 -147 l 548 -207 l 321 -208 l 369 66 q 315 -14 217 -14 q 119 -14 73 48 q 28 110 47 219 q 70 352 182 447 q 281 533 428 533 q 546 533 599 486 z m 433 428 q 430 457 402 457 q 322 457 272 379 q 241 330 222 222 q 206 132 220 97 q 233 62 281 62 q 327 62 355 103 q 383 143 399 234 z"},"d":{"x_min":0,"x_max":629,"ha":629,"o":"m 362 234 l 371 285 q 379 333 379 368 q 379 397 373 417 q 359 457 312 457 q 264 457 237 414 q 210 372 191 260 q 179 191 179 148 q 179 122 184 105 q 196 62 244 62 q 290 62 318 103 q 346 143 362 234 z m 609 760 l 477 0 l 321 0 l 333 66 q 306 25 269 6 q 231 -14 182 -14 q 83 -14 39 59 q 10 108 10 180 q 10 217 17 260 q 40 388 109 460 q 179 533 278 533 q 327 533 357 513 q 388 494 400 453 l 444 701 l 377 701 l 387 760 z"},"1":{"x_min":0,"x_max":626,"ha":626,"o":"m 59 0 l 69 59 l 192 59 l 295 649 l 143 559 l 155 632 l 339 742 l 478 742 l 358 59 l 482 59 l 472 0 z"},"5":{"x_min":0,"x_max":626,"ha":626,"o":"m 573 729 l 550 601 l 199 601 l 171 441 q 205 466 242 479 q 280 491 320 491 q 441 491 499 423 q 558 355 537 238 q 516 119 434 52 q 353 -14 226 -14 q 172 -14 121 -4 q 70 5 16 26 l 43 185 l 96 185 q 86 113 111 78 q 136 43 197 43 q 261 43 301 91 q 341 139 358 238 q 375 335 353 383 q 331 431 269 431 q 235 431 207 416 q 178 400 149 368 l 105 368 l 169 729 z"}}}
